<svg width="44" height="44" fill="none" xmlns="http://www.w3.org/2000/svg">
<style>
@media (prefers-color-scheme: dark) {
  path {
    fill: #7c9be9;
  }
}
</style>
<path d="M18.514 40.026h6.424c.834 0 1.618-.408 2.103-1.094l12.15-17.18h-6.424c-.834 0-1.618.408-2.103 1.094l-12.15 17.18Z" fill="#2051CD"/><path fill-rule="evenodd" clip-rule="evenodd" d="M35.873 19.348h-3.755a3.424 3.424 0 0 0-2.788 1.438L15.727 39.88C6.857 38.747 0 31.171 0 21.993 0 12.033 8.074 3.96 18.033 3.96c9.06 0 16.56 6.683 17.84 15.388Z" fill="#2051CD"/><path d="M29.093 40.026h4.631c.602 0 1.167-.29 1.516-.777L44 27.042h-4.631c-.602 0-1.167.29-1.517.777l-8.76 12.207Z" fill="#2051CD"/>
</svg>
